<svg width="48" height="55" viewBox="0 0 48 55" fill="none" xmlns="http://www.w3.org/2000/svg">
<path d="M4.85791 10.1895L18.8741 14.4757L19.5742 12.1543L4.55848 7.5625L-2.11499 11.4406L-0.91087 13.5418L4.85791 10.1895Z" fill="#E2AC1D"/>
<path d="M4.85791 14.4707L18.8741 18.757L19.5742 16.4355L4.55848 11.8438L-2.11499 15.7219L-0.91087 17.8231L4.85791 14.4707Z" fill="#E2AC1D"/>
<path d="M4.85791 18.752L18.8741 23.0382L19.5742 20.7168L4.55848 16.125L-2.11499 20.0031L-0.91087 22.1043L4.85791 18.752Z" fill="#E2AC1D"/>
<path d="M4.85791 23.0332L18.8741 27.3195L19.5742 24.998L4.55848 20.4062L-2.11499 24.2844L-0.91087 26.3856L4.85791 23.0332Z" fill="#E2AC1D"/>
<path d="M4.85791 27.3145L18.8741 31.6007L19.5742 29.2793L4.55848 24.6875L-2.11499 28.5655L-0.911012 30.6667L4.85791 27.3145Z" fill="#E2AC1D"/>
<path d="M4.85791 31.5957L18.8741 35.882L19.5742 33.5605L4.55848 28.9688L-2.11499 32.8467L-0.911012 34.948L4.85791 31.5957Z" fill="#E2AC1D"/>
<path d="M4.85791 35.877L18.8741 40.1632L19.5742 37.8418L4.55848 33.25L-2.11499 37.128L-0.911012 39.2292L4.85791 35.877Z" fill="#E2AC1D"/>
<path d="M4.85791 40.1583L18.8741 44.4445L19.5742 42.1231L4.55848 37.5313L-2.11499 41.4093L-0.911012 43.5105L4.85791 40.1583ZM27.7536 10.1895L41.7699 14.4757L42.4698 12.1543L27.4541 7.5625L20.7807 11.4406L21.9847 13.5418L27.7536 10.1895Z" fill="#E2AC1D"/>
<path d="M27.7537 5.90823L41.7699 10.1945L42.4698 7.87304L27.4541 3.28125L20.7808 7.15936L21.9847 9.2606L27.7537 5.90823Z" fill="#E2AC1D"/>
<path d="M27.7537 1.62698L41.7699 5.91323L42.4698 3.59179L27.4541 -1L20.7808 2.87811L21.9847 4.97935L27.7537 1.62698ZM27.7537 14.4708L41.7699 18.757L42.4698 16.4356L27.4541 11.8438L20.7808 15.7219L21.9847 17.8231L27.7537 14.4708Z" fill="#E2AC1D"/>
<path d="M27.7537 18.752L41.7699 23.0382L42.4698 20.7168L27.4541 16.125L20.7808 20.0031L21.9847 22.1043L27.7537 18.752Z" fill="#E2AC1D"/>
<path d="M27.7537 23.0332L41.7699 27.3195L42.4698 24.998L27.4541 20.4062L20.7808 24.2844L21.9847 26.3856L27.7537 23.0332Z" fill="#E2AC1D"/>
<path d="M27.7537 27.3145L41.7699 31.6007L42.4698 29.2793L27.4541 24.6875L20.7808 28.5655L21.9847 30.6667L27.7537 27.3145Z" fill="#E2AC1D"/>
<path d="M27.7537 31.5957L41.7699 35.882L42.4698 33.5605L27.4541 28.9688L20.7808 32.8467L21.9847 34.948L27.7537 31.5957Z" fill="#E2AC1D"/>
<path d="M27.7537 35.877L41.7699 40.1632L42.4698 37.8418L27.4541 33.25L20.7808 37.128L21.9847 39.2292L27.7537 35.877Z" fill="#E2AC1D"/>
<path d="M27.7537 40.1582L41.7699 44.4445L42.4698 42.123L27.4541 37.5312L20.7808 41.4092L21.9847 43.5105L27.7537 40.1582Z" fill="#E2AC1D"/>
<path d="M41.7957 52.6796V48.6394L42.4697 46.4043L27.454 41.8125L20.7805 45.6905L21.4545 46.8665V52.6796H18.9002V48.6394L19.5741 46.4043L4.55842 41.8125L-2.11504 45.6905L-1.44121 46.8665V52.6796H-5V54.9999H48V52.6796H41.7957ZM8.02085 52.6796V47.747L15.3786 49.5253V52.6796H8.02085ZM30.9167 52.6796V47.747L38.2744 49.5253V52.6796H30.9167Z" fill="#E2AC1D"/>
</svg>
